<svg width="256" height="256" viewBox="0 0 256 256" fill="none" xmlns="http://www.w3.org/2000/svg">
<rect width="256" height="256" rx="50" fill="#172686"/>
<rect x="118.181" y="74.5154" width="19.602" height="128.179" fill="white"/>
<path d="M112.323 138.605L53.5168 202.694H28.0342L88.8004 138.605L39.7954 74.5154H61.3576L112.323 138.605Z" fill="white"/>
<ellipse cx="128.018" cy="58.958" rx="11.7612" ry="11.6526" fill="white"/>
<path d="M186.804 202.694C209.538 202.694 227.968 184.435 227.968 161.91C227.968 139.386 220.127 126.952 204.446 113.358C197.912 108.179 184.844 93.1596 184.844 74.5154H153.48V93.9364C154.134 99.1154 157.401 109.473 173.082 125.01C191.73 143.486 198.565 163.852 180.923 171.621H145.64V202.694H186.804Z" fill="white"/>
</svg>
