<svg width="167" height="41" viewBox="0 0 167 41" fill="none" xmlns="http://www.w3.org/2000/svg">
<path d="M64.5768 22.8577H61.3026L56.2671 16.3798L54.9349 17.9649V22.8577H52.293V7.53589H54.9349V14.8178L60.8284 7.53589H64.1026L57.9833 14.7489L64.5768 22.8577Z" fill="white"/>
<path d="M77.7703 20.9052C76.3252 22.3907 74.4811 23.1334 72.2381 23.1334C69.9951 23.1334 68.151 22.3907 66.7059 20.9052C65.2607 19.4044 64.5381 17.5054 64.5381 15.2083C64.5381 12.9112 65.2607 11.0199 66.7059 9.53439C68.151 8.0336 69.9951 7.2832 72.2381 7.2832C74.4811 7.2832 76.3252 8.0336 77.7703 9.53439C79.2155 11.0199 79.938 12.9112 79.938 15.2083C79.938 17.5054 79.2155 19.4044 77.7703 20.9052ZM72.2381 20.7444C73.7284 20.7444 74.9327 20.2237 75.851 19.1823C76.7692 18.1257 77.2284 16.801 77.2284 15.2083C77.2284 13.6003 76.7692 12.2756 75.851 11.2343C74.9327 10.1929 73.7284 9.67222 72.2381 9.67222C70.7327 9.67222 69.5209 10.1929 68.6026 11.2343C67.6994 12.2756 67.2478 13.6003 67.2478 15.2083C67.2478 16.8163 67.6994 18.141 68.6026 19.1823C69.5209 20.2237 70.7327 20.7444 72.2381 20.7444Z" fill="white"/>
<path d="M95.5107 22.8577H92.9591L85.101 11.9004V22.8577H82.4591V7.53589H85.1688L92.8687 18.1486V7.53589H95.5107V22.8577Z" fill="white"/>
<path d="M103.882 23.1334C101.338 23.1334 99.2905 22.3217 97.74 20.6984L99.2303 18.6081C100.51 20.0323 102.098 20.7444 103.995 20.7444C105.003 20.7444 105.756 20.5376 106.253 20.1242C106.75 19.7107 106.998 19.213 106.998 18.631C106.998 18.141 106.78 17.7351 106.343 17.4135C105.922 17.0766 105.38 16.8316 104.717 16.6785C104.07 16.5253 103.37 16.3339 102.617 16.1042C101.865 15.8745 101.157 15.6218 100.495 15.3461C99.8475 15.0705 99.3055 14.6264 98.869 14.0138C98.4475 13.4012 98.2367 12.6585 98.2367 11.7856C98.2367 10.4839 98.741 9.41188 99.7496 8.5696C100.758 7.712 102.083 7.2832 103.724 7.2832C106.027 7.2832 107.901 8.00297 109.346 9.4425L107.856 11.441C106.697 10.2618 105.237 9.67222 103.475 9.67222C102.708 9.67222 102.09 9.84833 101.624 10.2006C101.172 10.5528 100.946 11.0122 100.946 11.5788C100.946 11.9617 101.104 12.2909 101.421 12.5666C101.752 12.8269 102.173 13.0413 102.685 13.2098C103.197 13.3629 103.761 13.5161 104.379 13.6692C105.011 13.8071 105.636 13.9908 106.253 14.2205C106.885 14.4502 107.457 14.7259 107.969 15.0475C108.481 15.3538 108.895 15.7979 109.211 16.3798C109.542 16.9465 109.708 17.6126 109.708 18.3783C109.708 19.7413 109.211 20.8746 108.217 21.7781C107.239 22.6816 105.794 23.1334 103.882 23.1334Z" fill="white"/>
<path d="M118.35 22.8577H115.708V9.90193H111.147V7.53589H122.912V9.90193H118.35V22.8577Z" fill="white"/>
<path d="M137.244 22.8577H134.241L133.134 19.8944H126.225L125.118 22.8577H122.115L128.031 7.53589H131.328L137.244 22.8577ZM132.389 17.5284L129.679 10.2235L126.97 17.5284H132.389Z" fill="white"/>
<path d="M151.918 22.8577H149.366L141.508 11.9004V22.8577H138.866V7.53589H141.576L149.276 18.1486V7.53589H151.918V22.8577Z" fill="white"/>
<path d="M161.35 22.8577H158.708V9.90193H154.147V7.53589H165.912V9.90193H161.35V22.8577Z" fill="white"/>
<path d="M53.1127 39.1316H51.8633V28.917H53.1127V39.1316Z" fill="white"/>
<path d="M63.7746 39.1316H62.5703L56.7144 30.9844V39.1316H55.465V28.917H56.7446L62.5252 36.8957V28.917H63.7746V39.1316Z" fill="white"/>
<path d="M67.3726 39.1316H66.1231V28.917H72.7016V30.0502H67.3726V33.3428H72.5962V34.476H67.3726V39.1316Z" fill="white"/>
<path d="M82.5885 37.8145C81.6552 38.8151 80.4559 39.3153 78.9907 39.3153C77.5255 39.3153 76.3262 38.8151 75.3929 37.8145C74.4696 36.814 74.0079 35.5531 74.0079 34.0319C74.0079 32.5107 74.4696 31.2499 75.3929 30.2493C76.3262 29.2488 77.5255 28.7485 78.9907 28.7485C80.4559 28.7485 81.6552 29.2488 82.5885 30.2493C83.5219 31.2499 83.9885 32.5107 83.9885 34.0319C83.9885 35.5531 83.5219 36.814 82.5885 37.8145ZM78.9907 38.1821C80.0947 38.1821 80.9878 37.7941 81.6703 37.0182C82.3527 36.2321 82.6939 35.2366 82.6939 34.0319C82.6939 32.8272 82.3527 31.8369 81.6703 31.061C80.9878 30.2748 80.0947 29.8818 78.9907 29.8818C77.8767 29.8818 76.9836 30.2697 76.3112 31.0457C75.6388 31.8216 75.3026 32.817 75.3026 34.0319C75.3026 35.2366 75.6388 36.2321 76.3112 37.0182C76.9836 37.7941 77.8767 38.1821 78.9907 38.1821Z" fill="white"/>
<path d="M89.1768 39.3153C87.551 39.3153 86.2664 38.7742 85.323 37.692L86.0757 36.7119C86.9087 37.692 87.9574 38.1821 89.2219 38.1821C90.0348 38.1821 90.6319 38.0034 91.0133 37.6461C91.3947 37.2887 91.5854 36.8753 91.5854 36.4056C91.5854 35.9973 91.4348 35.6603 91.1337 35.3949C90.8427 35.1192 90.4764 34.9202 90.0348 34.7976C89.6033 34.6751 89.1266 34.5373 88.6047 34.3842C88.0929 34.2208 87.6162 34.0524 87.1746 33.8788C86.7431 33.7052 86.3768 33.4245 86.0757 33.0365C85.7847 32.6485 85.6391 32.1687 85.6391 31.597C85.6391 30.7598 85.9653 30.0758 86.6176 29.5449C87.27 29.014 88.0979 28.7485 89.1015 28.7485C90.5768 28.7485 91.761 29.2284 92.6542 30.1881L91.9015 31.1222C91.1889 30.3055 90.2205 29.8971 88.9961 29.8971C88.394 29.8971 87.8972 30.0502 87.5058 30.3565C87.1244 30.6526 86.9338 31.0406 86.9338 31.5204C86.9338 31.8777 87.0793 32.1738 87.3703 32.4086C87.6714 32.6434 88.0377 32.817 88.4692 32.9293C88.9108 33.0416 89.3875 33.1845 89.8993 33.3581C90.4212 33.5215 90.8979 33.7001 91.3294 33.8941C91.771 34.0779 92.1373 34.3791 92.4284 34.7976C92.7294 35.2162 92.88 35.7216 92.88 36.3137C92.88 37.1407 92.5739 37.8503 91.9617 38.4424C91.3595 39.0244 90.4312 39.3153 89.1768 39.3153Z" fill="white"/>
<path d="M102.92 37.8145C101.987 38.8151 100.787 39.3153 99.322 39.3153C97.8568 39.3153 96.6575 38.8151 95.7242 37.8145C94.8009 36.814 94.3392 35.5531 94.3392 34.0319C94.3392 32.5107 94.8009 31.2499 95.7242 30.2493C96.6575 29.2488 97.8568 28.7485 99.322 28.7485C100.787 28.7485 101.987 29.2488 102.92 30.2493C103.853 31.2499 104.32 32.5107 104.32 34.0319C104.32 35.5531 103.853 36.814 102.92 37.8145ZM99.322 38.1821C100.426 38.1821 101.319 37.7941 102.002 37.0182C102.684 36.2321 103.025 35.2366 103.025 34.0319C103.025 32.8272 102.684 31.8369 102.002 31.061C101.319 30.2748 100.426 29.8818 99.322 29.8818C98.208 29.8818 97.3148 30.2697 96.6424 31.0457C95.97 31.8216 95.6339 32.817 95.6339 34.0319C95.6339 35.2366 95.97 36.2321 96.6424 37.0182C97.3148 37.7941 98.208 38.1821 99.322 38.1821Z" fill="white"/>
<path d="M112.007 39.1316H106.091V28.917H107.34V37.9983H112.007V39.1316Z" fill="white"/>
<path d="M117.363 39.3153C116.039 39.3153 115.025 38.9478 114.323 38.2127C113.62 37.4674 113.269 36.4516 113.269 35.1652V28.917H114.533V35.1346C114.533 36.084 114.774 36.8293 115.256 37.3704C115.748 37.9115 116.45 38.1821 117.363 38.1821C118.277 38.1821 118.979 37.9115 119.471 37.3704C119.963 36.8293 120.209 36.084 120.209 35.1346V28.917H121.473V35.1499C121.473 36.4465 121.122 37.4674 120.419 38.2127C119.717 38.9478 118.698 39.3153 117.363 39.3153Z" fill="white"/>
<path d="M127.557 39.1316H126.308V30.0502H123.132V28.917H130.749V30.0502H127.557V39.1316Z" fill="white"/>
<path d="M133.659 39.1316H132.409V28.917H133.659V39.1316Z" fill="white"/>
<path d="M144.185 37.8145C143.252 38.8151 142.053 39.3153 140.587 39.3153C139.122 39.3153 137.923 38.8151 136.989 37.8145C136.066 36.814 135.605 35.5531 135.605 34.0319C135.605 32.5107 136.066 31.2499 136.989 30.2493C137.923 29.2488 139.122 28.7485 140.587 28.7485C142.053 28.7485 143.252 29.2488 144.185 30.2493C145.118 31.2499 145.585 32.5107 145.585 34.0319C145.585 35.5531 145.118 36.814 144.185 37.8145ZM140.587 38.1821C141.691 38.1821 142.584 37.7941 143.267 37.0182C143.949 36.2321 144.291 35.2366 144.291 34.0319C144.291 32.8272 143.949 31.8369 143.267 31.061C142.584 30.2748 141.691 29.8818 140.587 29.8818C139.473 29.8818 138.58 30.2697 137.908 31.0457C137.235 31.8216 136.899 32.817 136.899 34.0319C136.899 35.2366 137.235 36.2321 137.908 37.0182C138.58 37.7941 139.473 38.1821 140.587 38.1821Z" fill="white"/>
<path d="M155.831 39.1316H154.627L148.771 30.9844V39.1316H147.522V28.917H148.801L154.582 36.8957V28.917H155.831V39.1316Z" fill="white"/>
<path d="M161.431 39.3153C159.806 39.3153 158.521 38.7742 157.578 37.692L158.33 36.7119C159.163 37.692 160.212 38.1821 161.477 38.1821C162.29 38.1821 162.887 38.0034 163.268 37.6461C163.649 37.2887 163.84 36.8753 163.84 36.4056C163.84 35.9973 163.69 35.6603 163.388 35.3949C163.097 35.1192 162.731 34.9202 162.29 34.7976C161.858 34.6751 161.381 34.5373 160.859 34.3842C160.348 34.2208 159.871 34.0524 159.429 33.8788C158.998 33.7052 158.631 33.4245 158.33 33.0365C158.039 32.6485 157.894 32.1687 157.894 31.597C157.894 30.7598 158.22 30.0758 158.872 29.5449C159.525 29.014 160.353 28.7485 161.356 28.7485C162.831 28.7485 164.016 29.2284 164.909 30.1881L164.156 31.1222C163.444 30.3055 162.475 29.8971 161.251 29.8971C160.649 29.8971 160.152 30.0502 159.761 30.3565C159.379 30.6526 159.188 31.0406 159.188 31.5204C159.188 31.8777 159.334 32.1738 159.625 32.4086C159.926 32.6434 160.292 32.817 160.724 32.9293C161.166 33.0416 161.642 33.1845 162.154 33.3581C162.676 33.5215 163.153 33.7001 163.584 33.8941C164.026 34.0779 164.392 34.3791 164.683 34.7976C164.984 35.2162 165.135 35.7216 165.135 36.3137C165.135 37.1407 164.829 37.8503 164.216 38.4424C163.614 39.0244 162.686 39.3153 161.431 39.3153Z" fill="white"/>
<rect x="21.6328" y="7.55029" width="4.70428" height="31.5855" fill="#B2CEED"/>
<path d="M20.2284 23.3429L6.11556 39.1357H0L14.5832 23.3429L2.82256 7.55011H7.99727L20.2284 23.3429Z" fill="white"/>
<ellipse cx="24.4554" cy="3.71663" rx="2.82256" ry="2.87141" fill="white"/>
<path d="M38.1055 39.1358C43.5615 39.1358 47.9845 34.6363 47.9845 29.0859C47.9845 23.5355 46.1028 20.4717 42.3394 17.1217C40.7713 15.8455 37.6351 12.1446 37.6351 7.55029H30.1083V12.336C30.2651 13.6122 31.0491 16.1645 34.8125 19.9931C39.2878 24.5458 40.9281 29.5645 36.6943 31.4787H28.2266V39.1358H38.1055Z" fill="white"/>
</svg>
